<svg width="1119" height="252" viewBox="0 0 1119 252" fill="none" xmlns="http://www.w3.org/2000/svg">
<rect x="93.7393" y="0.00585938" width="93.2063" height="83.9987" fill="#121212"/>
<rect x="280.151" y="0.00585938" width="93.2063" height="83.9987" fill="#121212"/>
<rect x="466.561" y="0.00585938" width="93.2063" height="83.9987" fill="#121212"/>
<rect x="652.973" y="0.00585938" width="93.2063" height="83.9987" fill="#121212"/>
<rect x="839.385" y="0.00585938" width="93.2063" height="83.9987" fill="#121212"/>
<rect x="1025.79" y="0.00585938" width="93.2063" height="83.9987" fill="#121212"/>
<rect x="1025.79" y="168.002" width="93.2063" height="83.9987" fill="#121212"/>
<rect x="93.7393" y="168.002" width="93.2063" height="83.9987" fill="#121212"/>
<rect x="280.151" y="168.002" width="93.2063" height="83.9987" fill="#121212"/>
<rect x="466.562" y="168.002" width="93.2063" height="83.9987" fill="#121212"/>
<rect x="652.973" y="168.002" width="93.2063" height="83.9987" fill="#121212"/>
<rect x="839.385" y="168.002" width="93.2063" height="83.9987" fill="#121212"/>
<rect x="932.588" y="84.0029" width="93.2063" height="83.9987" fill="#121212"/>
<rect x="746.179" y="84.0029" width="93.2063" height="83.9987" fill="#121212"/>
<rect x="559.767" y="84.0029" width="93.2063" height="83.9987" fill="#121212"/>
<rect x="373.356" y="84.0029" width="93.2063" height="83.9987" fill="#121212"/>
<rect x="186.945" y="84.0029" width="93.2063" height="83.9987" fill="#121212"/>
<rect x="0.533203" y="84.0029" width="93.2063" height="83.9987" fill="#121212"/>
</svg>
