<svg width="150" height="150" viewBox="0 0 150 150" fill="none" xmlns="http://www.w3.org/2000/svg">
<path fill-rule="evenodd" clip-rule="evenodd" d="M19.2142 53.4832C9.45339 65.3738 0.0946066 80.1192 0.000761909 91.1408C-0.0357881 95.2877 1.2405 98.908 4.30181 101.65C8.70757 105.599 13.5618 106.992 18.3923 107C25.4514 107.01 32.4611 104.056 37.9496 101.778C47.1928 97.9437 149.368 51.9175 149.368 51.9175C150.354 51.4052 150.169 50.7668 148.935 51.0855C148.437 51.2146 37.7016 82.3438 37.7016 82.3438C35.6041 82.9591 33.4367 83.281 31.257 83.3008C22.7467 83.3531 15.174 78.453 15.2352 68.1272C15.2589 64.0868 16.4512 59.2144 19.2142 53.4832Z" fill="#121212"/>
</svg>
