<svg width="150" height="150" viewBox="0 0 150 150" fill="none" xmlns="http://www.w3.org/2000/svg">
<path d="M145.208 54.1856C144.187 56.5854 146.169 60.3884 143.313 61.1339L54.5957 60.8357L45.1827 61.0318L43.8505 63.0742L32.7468 105.309L31.2088 106.01L16.2226 105.746L14.815 102.815C10.6432 85.5958 5.94999 68.6622 1.93506 51.4631C5.77481 50.9586 10.2481 50.6665 14.1469 51.4896C18.2107 64.0688 20.0583 77.4568 23.5986 90.4813L24.063 90.8591L25.1589 89.6173L34.7145 52.0492L35.7839 51.1506L136.542 51.314C139.429 52.2167 145.456 49.2511 145.208 54.1856Z" fill="#F4F4F4"/>
<path d="M145.346 70.4085C145.597 73.2352 142.914 75.827 140.957 77.4773C137.304 75.8516 132.796 72.4979 128.307 74.9223C126.903 75.9782 125.917 77.8735 126.942 79.436C133.159 84.0988 144.252 81.5581 146.591 91.0165C147.746 95.087 146.821 100.293 143.605 103.177C138.422 108.024 130.908 109.049 123.664 106.96C120.487 105.538 116.934 104.582 114.182 102.029C115.239 99.135 117.101 96.6596 119.099 94.4988C123.139 95.5016 126.659 98.7858 131.649 98.1996C133.299 98.1731 135.375 97.0293 136.19 95.2606C136.779 88.2143 127.804 90.9368 123.675 88.9312C119.474 87.9222 116.156 84.3296 115.329 80.302C114.516 76.0905 115.679 72.0527 118.886 69.3444C126.394 64.1955 138.205 65.0084 145.346 70.4085Z" fill="#F4F4F4"/>
<path d="M111.053 68.3619C111.353 80.4611 111.302 93.026 110.96 105.06C107.071 106.065 102.694 105.195 98.5747 105.187C95.2483 99.6291 93.2113 94.3148 89.396 88.7145C88.9132 88.5082 88.6952 89.1536 88.3571 89.2803L88.0434 104.817C85.4462 106.242 81.7755 104.948 78.7628 105.519L78.1008 103.471C78.223 92.0784 77.7769 79.636 78.6956 68.4722C82.0607 67.7635 85.8577 67.7451 89.6343 67.8942L90.7282 68.6478L99.1899 83.9005L100.365 83.6738C100.074 79.1785 101.05 73.4863 100.803 68.4926C103.712 67.2488 107.949 67.9289 111.053 68.3619Z" fill="#F4F4F4"/>
<path d="M59.4149 88.1815C59.1582 85.1812 57.9258 82.283 56.6731 79.6851C54.9763 82.0236 55.0374 85.3364 54.304 88.0855C55.6912 89.362 57.8831 88.7329 59.4149 88.1815ZM68.3879 77.5242L75.1731 105.06C72.2745 106.128 68.5427 105.323 65.2448 105.372C63.6172 103.087 64.6418 98.7121 60.8938 98.2301C57.4084 98.4426 52.8924 97.0762 50.5295 99.8457L48.9039 105.489C45.7405 105.895 41.9354 105.92 39.0347 105.16C42.2144 92.6952 45.879 80.4407 49.6963 68.1883C54.4039 67.2611 60.4762 67.6083 65.3548 68.1822L68.3879 77.5242Z" fill="#F4F4F4"/>
<path d="M146.892 64.0483C146.817 64.0136 146.709 63.9952 146.566 63.9952H146.436V64.61H146.648C146.78 64.6141 146.88 64.5855 146.951 64.5406C147.025 64.4813 147.061 64.3956 147.061 64.2812C147.063 64.1648 147.002 64.0851 146.892 64.0483ZM145.898 65.7211V63.6439C146.03 63.6399 146.22 63.6439 146.479 63.6439C146.735 63.648 146.88 63.6439 146.902 63.6439C147.073 63.6562 147.21 63.6909 147.316 63.7563C147.501 63.8523 147.591 64.0218 147.591 64.2465C147.591 64.4242 147.546 64.5508 147.448 64.6223C147.353 64.7019 147.234 64.7489 147.092 64.7591C147.224 64.7877 147.32 64.8326 147.387 64.8837C147.509 64.9879 147.579 65.1472 147.577 65.3575L147.579 65.5393C147.577 65.5597 147.585 65.5802 147.577 65.6047C147.577 65.621 147.585 65.6455 147.585 65.6619L147.599 65.7293L147.086 65.719C147.069 65.6598 147.057 65.5597 147.053 65.4311C147.051 65.3106 147.039 65.2289 147.016 65.1798C146.988 65.1043 146.935 65.0512 146.866 65.0226C146.821 65.0103 146.758 64.996 146.672 64.9919H146.554L146.436 64.9879V65.7231L145.898 65.7211ZM145.633 63.6011C145.334 63.8993 145.185 64.2608 145.185 64.6856C145.185 65.1104 145.338 65.4821 145.641 65.7885C145.945 66.0908 146.303 66.2399 146.725 66.2337C147.151 66.2419 147.52 66.0826 147.825 65.7803C148.118 65.476 148.271 65.1063 148.271 64.6856C148.271 64.2608 148.118 63.8993 147.821 63.6031C147.509 63.2865 147.151 63.1313 146.725 63.1313C146.303 63.1313 145.937 63.2865 145.633 63.6011ZM148.039 66.0295C147.67 66.3808 147.234 66.5626 146.725 66.5585C146.195 66.5523 145.751 66.3747 145.389 66.0152C145.034 65.6537 144.859 65.2023 144.851 64.6774C144.851 64.13 145.049 63.6725 145.44 63.3131C145.806 62.9659 146.232 62.8004 146.729 62.7943C147.243 62.7943 147.693 62.9781 148.047 63.3437C148.418 63.7195 148.599 64.1586 148.599 64.6774C148.601 65.2125 148.418 65.668 148.039 66.0295Z" fill="#F4F4F4"/>
</svg>
